<svg id="Layer_1" data-name="Layer 1" xmlns="http://www.w3.org/2000/svg" viewBox="0 0 92 36"><defs><style>.cls-1{fill:#f91954;}</style></defs><title>woaho</title><path class="cls-1" d="M3.8,12.4,7.73,22.48a1,1,0,0,0,1.92,0l3.74-9.85a.62.62,0,0,1,1.16,0l3.57,9.84a1,1,0,0,0,1.93,0l4.19-10.12a.62.62,0,0,1,.57-.38h1.83a.62.62,0,0,1,.57.86l-7.7,18.31a.62.62,0,0,1-1.16,0L14.49,20.47a.62.62,0,0,0-1.17,0l-4,10.7a.62.62,0,0,1-1.16,0L.8,12.85A.62.62,0,0,1,1.38,12H3.22A.62.62,0,0,1,3.8,12.4Z"/><path class="cls-1" d="M27.28,25.49a6.44,6.44,0,0,1,1.89-4.8,6.7,6.7,0,0,1,9.28,0,6.23,6.23,0,0,1,1.89,4.6,6.2,6.2,0,0,1-1.9,4.61,6.49,6.49,0,0,1-4.69,1.85,6.39,6.39,0,0,1-6.47-6.27Zm2.89-.24a4.13,4.13,0,0,0,1,2.9,3.81,3.81,0,0,0,5.3,0,4,4,0,0,0,1-2.85,4,4,0,0,0-1-2.85,3.76,3.76,0,0,0-5.28,0A3.93,3.93,0,0,0,30.17,25.25Z"/><path class="cls-1" d="M53.69,19.17H55.2V31.41H52.35V30.13a5.43,5.43,0,0,1-8-.2,6.82,6.82,0,0,1-1.65-4.68,6.65,6.65,0,0,1,1.52-4.44,5.61,5.61,0,0,1,3.37-1.91,5.13,5.13,0,0,1,4.71,1.69V20.5A1.33,1.33,0,0,1,53.69,19.17Zm-8,6.08a4.24,4.24,0,0,0,1,2.91,3.32,3.32,0,0,0,2.75,1.06,3.18,3.18,0,0,0,2.19-1.07,4.19,4.19,0,0,0,1-2.84,4.19,4.19,0,0,0-1-2.84A3.2,3.2,0,0,0,49,21.38a3.13,3.13,0,0,0-2.44,1.11A4.08,4.08,0,0,0,45.64,25.25Z"/><path class="cls-1" d="M63.05,19.59h6.74a.82.82,0,0,0,.82-.82v-6a.82.82,0,0,1,.82-.82h1.29a.82.82,0,0,1,.82.82V30.59a.82.82,0,0,1-.82.82H71.43a.82.82,0,0,1-.82-.82V23.16a.82.82,0,0,0-.82-.82H63.05a.82.82,0,0,0-.82.82v7.43a.82.82,0,0,1-.82.82H60.12a.82.82,0,0,1-.82-.82V12.82a.82.82,0,0,1,.82-.82h1.29a.82.82,0,0,1,.82.82v6A.82.82,0,0,0,63.05,19.59Z"/><path class="cls-1" d="M62.28,1.64C61.43,2.2,53,7,53,7c-2.09,1.15-2.29,2.54-1.07,4.11,2.89,2.89,6.4.76,7.31,0,.59-.49,1.59-1.58,2.29-2.13,2.13-1.68,4.73-2.84,8.84-.3a41.71,41.71,0,0,0,7.47,3.66c.91.3,2.74,1.07,3.81,0s.16-1.87-1.07-2.13a19.32,19.32,0,0,1-6.7-3.5c-.3-.3,3.6,2.56,6.09,3,1.07.15,1.52,0,1.52-.46,0-.61-.61-1.07-1.83-1.22-1.47-.21-4.72-1.83-5.18-2S78.13,7.58,79,7.43c.3,0,.6-.25.3-.61a1.65,1.65,0,0,0-.91-.46,28.48,28.48,0,0,1-6.86-2.59c-1.29,1-5.33,2-5.18,2,.37-.09,4.83-1.65,5.64-2.89S71.73,0,71.12.12a40.47,40.47,0,0,0-3.81,1.68,21.78,21.78,0,0,1-4,1.37c0-.15.73-.4,2.74-1.07.46-.15,1.22-.46,1.22-.61C67.31,1,64.87,0,62.28,1.64Z"/><path class="cls-1" d="M88.94,20.35h0a7.37,7.37,0,0,0-10.43,0h0a7.37,7.37,0,0,0,0,10.43l4.68,4.68a.75.75,0,0,0,1.06,0l4.68-4.68A7.37,7.37,0,0,0,88.94,20.35Zm-4.69,7.82a2.66,2.66,0,1,1,2.09-2.09A2.66,2.66,0,0,1,84.25,28.17Z"/></svg>